PathFileType	4	(X/Y/Z)	SUBJ24_3_walk_RCNL2025.trc
DataRate	CameraRate	NumFrames	NumMarkers	Units	OrigDataRate	OrigDataStartFrame	OrigNumFrames
100	100	13	25	mm	100	204	406
Frame#	Time	R_Shoulder			L_Shoulder			C7			J_Notch			R_Elbow			L_Elbow			R_Wrist			L_Wrist			R_Asis			L_Asis			Sacral			Thoracic			Sternum			R_Thigh_Lateral			R_Knee_Lateral			R_Shank_Lateral			R_Ankle_Lateral			R_Heel			R_Toe			L_Thigh_Lateral			L_Knee_Lateral			L_Shank_Lateral			L_Ankle_Lateral			L_Heel			L_Toe		
		X1	Y1	Z1	X2	Y2	Z2	X3	Y3	Z3	X4	Y4	Z4	X5	Y5	Z5	X6	Y6	Z6	X7	Y7	Z7	X8	Y8	Z8	X9	Y9	Z9	X10	Y10	Z10	X11	Y11	Z11	X12	Y12	Z12	X13	Y13	Z13	X14	Y14	Z14	X15	Y15	Z15	X16	Y16	Z16	X17	Y17	Z17	X18	Y18	Z18	X19	Y19	Z19	X20	Y20	Z20	X21	Y21	Z21	X22	Y22	Z22	X23	Y23	Z23	X24	Y24	Z24	X25	Y25	Z25
204	2.03000000	-888.677979	1301.076050	412.192291	-904.694580	1325.196289	68.259048	-983.614929	1375.596436	245.293137	-848.567017	1285.796875	237.453857	-923.951477	1014.161316	494.382782	-930.836487	1034.405762	-25.998396	-859.595001	786.365082	479.302704	-825.996399	822.503479	-20.720065	-860.495728	881.236267	400.975464	-887.726624	860.361389	75.773842	-1048.468140	917.622498	254.626404	-1048.335938	1109.061523	234.816879	-775.323730	1068.016846	225.266632	-892.814392	560.916992	433.071350	-825.744202	436.477661	343.907715	-836.989685	291.543335	391.558441	-868.414185	60.985424	318.608521	-918.309509	33.655960	262.320190	-743.513611	38.191204	307.228546	-899.890930	550.067139	46.714008	-867.807129	427.167786	92.336098	-991.071045	343.062958	54.407677	-1165.884888	207.030319	134.053558	-1202.272095	221.488388	200.710236	-1110.946289	92.869438	142.893585
205	2.04000000	-876.589111	1303.221436	412.415771	-894.554138	1326.733521	68.326309	-972.250854	1377.458740	245.837280	-837.308350	1287.540649	237.620560	-908.369995	1016.427795	495.780823	-924.357117	1036.112427	-25.326502	-839.743286	789.930969	479.547211	-825.306610	821.503876	-20.910431	-849.972900	882.141357	401.802917	-876.775146	862.914673	75.731010	-1037.367188	919.420471	255.402817	-1037.208008	1110.950806	236.395279	-764.342529	1069.774414	225.213760	-886.098450	562.501282	433.738892	-822.781921	436.260895	344.137970	-834.913147	291.301361	391.588257	-868.260559	61.029854	318.548035	-918.278503	33.740292	262.303925	-743.475342	38.170475	307.202576	-879.797852	553.545410	46.529556	-844.071289	431.552185	91.780640	-966.129822	346.192780	54.708214	-1137.957764	206.487854	134.871048	-1175.169556	220.008255	201.416504	-1079.876465	94.224045	143.809479
206	2.05000000	-864.627197	1305.353271	412.634460	-884.464172	1328.111450	68.420685	-960.971924	1379.171021	246.358734	-826.116089	1289.171997	237.743362	-892.932861	1018.741211	497.236542	-918.144897	1037.731445	-24.648129	-819.845947	793.696198	479.689972	-824.717926	820.666962	-21.112312	-839.559021	882.921570	402.556091	-865.757996	865.366333	75.663422	-1026.303223	921.053833	255.971359	-1026.161377	1112.718628	237.956223	-753.413330	1071.473389	225.169113	-879.850281	563.877075	434.179810	-820.079041	436.052368	344.334930	-833.186401	291.137848	391.628143	-868.096985	61.090866	318.472870	-918.229309	33.872486	262.296570	-743.432495	38.152775	307.200348	-859.901489	557.140198	46.351807	-820.678833	436.054962	91.308220	-940.988037	348.549683	54.889103	-1109.153564	204.433640	135.536758	-1147.421387	216.950912	201.825821	-1047.469482	94.503334	145.048264
207	2.06000000	-852.785400	1307.430542	412.850677	-874.430298	1329.307007	68.539444	-949.773315	1380.701660	246.857910	-814.986938	1290.661255	237.823868	-877.676941	1021.053711	498.754211	-912.164368	1039.231079	-23.945225	-799.946655	797.630096	479.734604	-824.192139	819.946991	-21.320107	-829.242188	883.584839	403.224182	-854.626404	867.669678	75.618584	-1015.270752	922.498474	256.315216	-1015.158569	1114.322876	239.480225	-742.517883	1073.087402	225.145401	-874.155518	564.964478	434.379211	-817.581360	435.850067	344.504883	-831.796692	291.045013	391.694336	-867.925415	61.167404	318.380707	-918.156860	34.057758	262.289520	-743.384094	38.134537	307.220398	-840.253967	560.802368	46.167217	-797.698364	440.578369	90.922935	-915.694763	350.023499	54.954773	-1079.553467	200.977600	136.061935	-1118.987183	212.326996	202.037781	-1013.895508	93.818520	146.363678
208	2.07000000	-841.047058	1309.404053	413.058899	-864.461670	1330.298218	68.671898	-938.644775	1382.027588	247.328918	-803.915771	1291.980103	237.862457	-862.628418	1023.311218	500.332031	-906.370239	1040.582520	-23.204124	-780.086761	801.693451	479.687424	-823.690521	819.298401	-21.529036	-819.010071	884.130798	403.794189	-843.342407	869.795410	75.630363	-1004.267639	923.739197	256.436798	-1004.137817	1115.713989	240.968246	-731.638306	1074.585815	225.144455	-868.956848	565.763123	434.362183	-815.211304	435.651154	344.645691	-830.647583	290.998871	391.785034	-867.747314	61.257896	318.270294	-918.057373	34.288635	262.271118	-743.327881	38.113384	307.258301	-820.892700	564.490723	45.961411	-775.194275	445.030853	90.627571	-890.314209	350.577484	54.922474	-1049.212402	196.238052	136.442200	-1089.806763	206.175491	202.115021	-979.302063	92.290810	147.544037
209	2.08000000	-829.389221	1311.221313	413.247253	-854.561646	1331.065918	68.804794	-927.572205	1383.133057	247.764252	-792.896118	1293.102905	237.860626	-847.799194	1025.459351	501.961700	-900.712585	1041.763794	-22.416462	-760.303223	805.841827	479.554871	-823.175415	818.680481	-21.735201	-808.849670	884.551086	404.254364	-831.878113	871.725342	75.718666	-993.293701	924.768555	256.354797	-993.050781	1116.850830	242.427719	-720.758179	1075.935669	225.159805	-864.087463	566.335510	434.185211	-812.878174	435.451508	344.749268	-829.590454	290.968018	391.882141	-867.564087	61.361076	318.141632	-917.929932	34.549324	262.229492	-743.259399	38.088120	307.306580	-801.840820	568.159424	45.728146	-753.233398	449.332245	90.425606	-864.924988	350.257233	54.813778	-1018.156860	190.337006	136.653961	-1059.809570	198.570526	202.071075	-943.795654	90.043144	148.423767
210	2.09000000	-817.788208	1312.832275	413.402130	-844.723999	1331.595825	68.924828	-916.540161	1384.007324	248.160278	-781.919434	1294.007690	237.822556	-833.184448	1027.449097	503.629578	-895.141785	1042.758789	-21.579224	-740.626709	810.029083	479.340256	-822.612488	818.058929	-21.935450	-798.742493	884.830750	404.601929	-820.218872	873.446655	75.889046	-982.348816	925.583069	256.099823	-981.889404	1117.710449	243.856842	-709.863037	1077.105591	225.179825	-859.337219	566.776184	433.920166	-810.491638	435.246429	344.806305	-828.470520	290.923523	391.958771	-867.376770	61.476543	317.994507	-917.777344	34.824169	262.156067	-743.173157	38.058033	307.356262	-783.118896	571.749939	45.474957	-731.889893	453.414215	90.322731	-839.613892	349.172729	54.644913	-986.384033	183.400833	136.657578	-1028.919922	189.620926	201.872391	-907.439758	87.203133	148.891586
211	2.10000000	-806.225159	1314.192871	413.512939	-834.934326	1331.880981	69.018585	-905.533569	1384.642212	248.516769	-770.974487	1294.677734	237.754272	-818.763977	1029.240967	505.316833	-889.614075	1043.557739	-20.694752	-721.081421	814.210907	479.044754	-821.971497	817.407501	-22.127227	-788.662476	884.951782	404.848785	-808.365173	874.948730	76.132965	-971.431152	926.179138	255.709030	-970.679077	1118.286499	245.241287	-698.940552	1078.068604	225.190674	-854.515381	567.175720	433.635254	-807.974854	435.031219	344.810120	-827.168335	290.847046	391.989716	-867.185425	61.605457	317.827972	-917.603027	35.104832	262.047119	-743.064514	38.021046	307.397766	-764.762207	575.190857	45.223141	-711.242432	457.214966	90.326950	-814.465942	347.464661	54.421268	-953.872437	175.564590	136.403641	-997.065002	179.468491	201.453735	-870.271301	83.908157	148.894592
212	2.11000000	-794.687195	1315.271118	413.574097	-825.171692	1331.921997	69.073837	-894.537537	1385.032349	248.831757	-760.048218	1295.102783	237.661377	-804.508057	1030.806763	506.999115	-884.093994	1044.156250	-19.769587	-701.687866	818.347229	478.670654	-821.223602	816.709473	-22.308077	-778.584778	884.896423	405.017853	-796.328003	876.221008	76.428635	-960.536072	926.550842	255.219330	-959.464111	1118.586182	246.556381	-687.982788	1078.802856	225.179718	-849.487549	567.591858	433.379089	-805.270813	434.801331	344.759430	-825.623230	290.735107	391.960083	-866.989441	61.751373	317.641052	-917.410278	35.393162	261.903046	-742.930603	37.971592	307.419495	-746.832520	578.400330	45.004822	-691.368774	460.674561	90.446899	-789.556824	345.272522	54.137608	-920.597229	166.978363	135.840363	-964.191406	168.294647	200.744232	-832.320068	80.308365	148.426498
213	2.12000000	-783.166077	1316.048462	413.583527	-815.407837	1331.724243	69.082191	-883.537659	1385.176880	249.098999	-749.126526	1295.277710	237.547043	-790.383179	1032.130005	508.647095	-878.548889	1044.555176	-18.811152	-682.465820	822.402222	478.222626	-820.338562	815.957214	-22.474358	-768.493896	884.648132	405.131165	-784.127136	877.251221	76.744934	-949.656799	926.691528	254.662231	-948.293457	1118.634033	247.768600	-676.987854	1079.290405	225.140198	-844.188110	568.036072	433.171021	-802.341064	434.553375	344.658783	-823.829773	290.596466	391.867371	-866.788635	61.920967	317.433960	-917.203064	35.700394	261.726898	-742.770325	37.901161	307.408844	-729.418091	581.286682	44.859936	-672.343872	463.734802	90.688667	-764.951538	342.713501	53.782196	-886.540833	157.813828	134.921265	-930.281189	156.327194	199.690247	-793.625427	76.568840	147.501785
214	2.13000000	-771.656616	1316.519409	413.540955	-805.608276	1331.296875	69.039719	-872.521057	1385.079224	249.309845	-738.196411	1295.201782	237.410965	-776.356323	1033.203491	510.227905	-872.942322	1044.759644	-17.825054	-663.435028	826.342804	477.707047	-819.283630	815.148285	-22.619293	-758.378906	884.196350	405.202026	-771.803040	878.021118	77.052841	-938.786072	926.596069	254.061218	-937.203674	1118.466064	248.841904	-665.959961	1079.516846	225.072708	-838.615662	568.477905	433.002045	-799.160339	434.285950	344.516663	-821.815918	290.445770	391.718262	-866.583496	62.123943	317.208313	-916.987854	36.045250	261.522827	-742.586487	37.804665	307.361847	-712.624817	583.753357	44.831322	-654.237000	466.339813	91.052284	-740.707153	339.872437	53.341702	-851.700562	148.268066	133.613785	-895.347351	143.831650	198.262802	-754.253662	72.869919	146.131027
215	2.14000000	-760.156555	1316.688354	413.445770	-795.735718	1330.651855	68.945335	-861.477539	1384.746948	249.455917	-727.246521	1294.879272	237.249237	-762.398010	1034.025391	511.707428	-867.233215	1044.778687	-16.816324	-644.614624	830.138000	477.130905	-818.028015	814.280518	-22.731792	-748.227966	883.544495	405.237122	-759.428833	878.503723	77.335640	-927.916199	926.261597	253.431030	-926.211304	1118.115845	249.747879	-654.907043	1079.473633	224.982895	-832.812866	568.863220	432.845154	-795.710022	434.000793	344.343109	-819.617004	290.298065	391.523407	-866.373779	62.371540	316.966797	-916.772888	36.450298	261.292450	-742.388367	37.686928	307.291931	-696.563354	585.708130	44.954895	-637.105347	468.434418	91.527771	-716.873352	336.804138	52.805019	-816.098755	138.563187	131.906708	-859.423401	131.094467	196.456238	-714.307983	69.404282	144.311676
216	2.15000000	-748.666138	1316.567505	413.295654	-785.754700	1329.804565	68.799370	-850.400818	1384.191528	249.529633	-716.267151	1294.317871	237.055481	-748.485596	1034.598022	513.053345	-861.380432	1044.627319	-15.793183	-626.021973	833.758392	476.500595	-816.548615	813.350800	-22.797684	-738.029907	882.713379	405.239380	-747.093262	878.669189	77.583794	-917.038025	925.685669	252.778702	-915.317078	1117.607544	250.470032	-643.837830	1079.158325	224.879425	-826.834839	569.138611	432.670319	-791.974304	433.703247	344.147949	-817.256775	290.165863	391.294495	-866.158020	62.674812	316.710999	-916.565063	36.937572	261.032440	-742.190979	37.559795	307.224304	-681.334778	587.069153	45.247154	-620.988586	469.963745	92.092545	-693.490295	333.546204	52.165909	-779.796814	128.942657	129.814072	-822.569702	118.411751	194.287628	-673.928345	66.373528	142.036911
